#tb 0: 20859/500000
#media_type 0: video
#codec_id 0: rawvideo
#dimensions 0: 320x240
#sar 0: 0/1
0,          0,          0,        1,   153600, 0xbfd35869
0,          1,          1,        1,   153600, 0xbe7c74a0
0,          2,          2,        1,   153600, 0x9f2524ee
0,          3,          3,        1,   153600, 0x3c8df375
0,          4,          4,        1,   153600, 0xe0ac5d7d
0,          5,          5,        1,   153600, 0xf0c6da50
0,          6,          6,        1,   153600, 0xbd50751f
0,          7,          7,        1,   153600, 0x51caf5f7
0,          8,          8,        1,   153600, 0x27752d4f
0,          9,          9,        1,   153600, 0x63a0d0dc
